<?xml version="1.0" encoding="UTF-8"?><svg id="Layer_1" xmlns="http://www.w3.org/2000/svg" viewBox="0 0 1550.76 423.93"><defs><style>.cls-1{fill:#e7fcba;stroke-width:0px;}</style></defs><path class="cls-1" d="M449.22,400.53l12.36,19.93h-20.32l-10.83-17.92h-27.79v17.92h-17.25v-67.09h52.71c15.24,0,25.68,9.68,25.68,24.63,0,10.93-5.56,18.98-14.57,22.52ZM402.64,388.07h30.67c5.18,0,13.23,0,13.23-10.06s-8.05-10.16-13.23-10.16h-30.67v20.22ZM517.35,367.08v13.61h53.67v12.46h-53.67v13.61h53.67v13.71h-70.92v-67.09h70.92v13.7h-53.67ZM671.36,396.94c-3.31,7.09-11.09,10-22.81,10-17.44,0-24.92-6.33-24.92-20.12s7.38-19.93,24.92-19.93c11.88,0,19.62,2.89,22.88,10h18.2c-3.52-16.06-16.78-24.48-41.08-24.48-29.52,0-42.17,12.17-42.17,34.41s12.65,34.6,42.17,34.6c24.22,0,37.47-8.44,41.04-24.48h-18.23ZM726.37,386.82c0-22.23,12.65-34.41,42.17-34.41s42.17,12.27,42.17,34.41-12.75,34.6-42.17,34.6-42.17-12.27-42.17-34.6ZM793.46,386.82c0-13.61-6.9-19.93-24.92-19.93s-24.92,6.23-24.92,19.93,7,20.12,24.92,20.12,24.92-6.42,24.92-20.12ZM911.43,400.53l12.36,19.93h-20.32l-10.83-17.92h-27.79v17.92h-17.25v-67.09h52.71c15.24,0,25.68,9.68,25.68,24.63,0,10.93-5.56,18.98-14.57,22.52ZM864.86,388.07h30.67c5.18,0,13.23,0,13.23-10.06s-8.05-10.16-13.23-10.16h-30.67v20.22ZM1043.59,386.92c0,22.81-15.24,33.54-32.58,33.54h-48.68v-67.09h48.68c17.35,0,32.58,10.73,32.58,33.54ZM1026.34,386.92c0-16.29-8.82-19.07-21.85-19.07h-24.92v38.14h24.92c13.03,0,21.85-2.78,21.85-19.07ZM1095.63,397.36c0,7.09,5.75,10.35,27.6,10.35,18.11,0,23.58-2.01,23.58-7.28,0-5.56-3.83-6.52-25.59-7.57-29.23-1.34-40.83-5.94-40.83-20.99s15.05-19.45,40.15-19.45,40.63,6.33,40.63,22.9h-17.25c0-7.38-7.38-9.2-25.3-9.2-16.96,0-20.99,1.63-20.99,6.61s4.02,6.13,23.58,7.28c26.45,1.44,42.84,2.87,42.84,19.84,0,17.92-16.96,21.56-41.78,21.56-27.5,0-43.89-4.7-43.89-24.06h17.25ZM583.46,175.74c2.11-1.6,2.08-4.07,2.24-6.3.35-5.11.61-10.24.62-15.36.05-45.14.03-90.28.04-135.42,0-2.34-.04-4.69.1-7.02.32-5.37,2.57-7.83,7.91-8.66,1.75-.27,3.55-.4,5.32-.4,29.65-.02,59.3-.13,88.94.03,16.77.09,32.05,4.89,45.23,15.63,7.91,6.45,13.77,14.5,18.59,23.4,7.49,13.82,11.24,28.82,13.79,44.16,2.23,13.43,3.25,26.97,3.41,40.59.05,3.89.39,7.78.79,11.65.17,1.71.27,4.09,2.39,4.31,2.21.23,2.64-2.14,3.02-3.79,1.57-6.73,3.14-13.46,4.42-20.25,6.37-33.95,12.65-67.93,18.98-101.89.39-2.08.8-4.18,1.48-6.17,1.4-4.1,4.04-6.89,8.63-7.26,1.89-.15,3.77-.41,5.66-.42,23.96-.03,47.93-.04,71.89,0,2.21,0,4.44.29,6.64.63,3.52.54,5.56,2.75,6.12,6.17.29,1.74.33,3.56.17,5.32-1.85,19.63-3.8,39.25-5.64,58.88-.57,6.1-.93,12.22-1.25,18.33-.09,1.64.18,3.35.55,4.96.43,1.86,2.01,2.23,3.15.69.97-1.32,1.73-2.87,2.25-4.44,4.19-12.7,8.38-25.4,12.43-38.14,4.42-13.91,8.69-27.87,13.05-41.81.36-1.17.82-2.32,1.34-3.42,1.85-3.87,4.67-6.49,9.16-6.83,1.89-.14,3.77-.36,5.66-.37,21.96-.03,43.91-.03,65.87,0,2.22,0,4.46.22,6.65.56,4.08.63,6.19,2.87,6.09,7.05-.1,3.88-.55,7.78-1.25,11.6-4.56,25-9.23,49.97-13.86,74.96-6.7,36.16-13.39,72.32-20.09,108.48-4.78,25.75-9.57,51.5-14.37,77.24-.35,1.86-.77,3.71-1.29,5.53-1.47,5.19-4.49,7.63-9.82,8.02-1.11.08-2.23.1-3.34.1-12.48,0-24.97.02-37.45-.02-1.89,0-3.8-.09-5.65-.45-3.66-.72-5.62-2.98-5.83-6.71-.1-1.76.03-3.58.34-5.31,2.78-15.47,5.66-30.91,8.44-46.38,3.2-17.77,6.37-35.54,9.45-53.33.74-4.27,1.08-8.62,1.6-12.93.03-.22.1-.47.03-.66-.31-.89-.43-2.21-1.05-2.55-1.24-.66-2.06.57-2.54,1.54-.89,1.79-1.71,3.64-2.35,5.53-6.37,18.79-12.75,37.57-19,56.39-4.43,13.32-8.67,26.71-13.01,40.06-1.76,5.4-3.53,10.8-5.37,16.18-1.96,5.76-6.03,8.61-12.12,8.6-11.15-.01-22.29,0-33.44,0-.56,0-1.11-.04-1.67-.1-5.21-.59-8.15-3.49-8.27-8.75-.14-5.79,0-11.59.19-17.38.25-7.35.73-14.68,1.02-22.03.35-8.68.57-17.37.91-26.05.56-14.14,1.25-28.27,1.73-42.4.11-3.21-.29-6.45-.61-9.65-.1-.98-.71-1.91-1.09-2.9-2.26.62-2.66,2.24-3.04,3.68-1.31,4.95-2.7,9.9-3.66,14.93-4.5,23.53-8.85,47.09-13.27,70.64-1.81,9.64-3.64,19.27-5.49,28.9-.23,1.2-.52,2.4-.9,3.56-1.52,4.63-4.69,7.19-9.6,7.47-2,.11-4.01.14-6.02.14-9.03,0-18.06.03-27.08-.05-1.87-.02-3.81-.2-5.6-.69-3.33-.92-5.01-3.13-5.11-6.6-.06-2.21.12-4.45.39-6.65.32-2.54.94-5.04,1.28-7.58.25-1.87.44-3.79.27-5.65-.1-1.08-.7-2.44-1.53-3.06-1.25-.94-2.53.07-3.57.93-.69.56-1.32,1.2-1.94,1.84-1.79,1.84-3.59,3.66-5.33,5.54-11.46,12.46-25.82,19.11-42.44,21.18-3.75.47-7.55.75-11.32.75-44.92.05-89.84-.11-134.75.16-8.75.05-14.39-3.1-18.6-10.72-10.84-19.6-22.11-38.96-33.24-58.4-11.24-19.63-22.49-39.26-33.81-58.84-1.44-2.49-3.3-4.75-5.06-7.04-.67-.87-1.7-1.86-2.82-1.09-.67.46-1.15,1.68-1.14,2.55.04,2.44.12,4.93.65,7.29,2.49,11.09,5.09,22.16,7.73,33.21,6.36,26.67,12.78,53.32,19.11,80,.46,1.93.62,3.97.57,5.96-.09,3.36-2.02,5.6-5.33,6.38-1.51.35-3.09.53-4.63.53-12.93.04-25.86.08-38.79,0-7.71-.05-10.66-2.24-12.68-9.75-2.4-8.93-4.46-17.95-6.63-26.94-4.34-17.98-8.65-35.97-12.97-53.95-3.54-14.74-7.07-29.47-10.61-44.21-4.03-16.79-8.08-33.59-12.11-50.38-7.53-31.43-15.08-62.85-22.54-94.29-.56-2.35-.76-4.85-.7-7.28.08-3.22,2.1-5.44,5.28-6.02,2.29-.42,4.65-.66,6.97-.66,21.18-.05,42.35-.03,63.53-.03.78,0,1.56.05,2.34.04,6.44-.03,11,2.99,14.04,8.56,3.8,6.94,7.62,13.87,11.47,20.78,11.04,19.87,22.07,39.74,33.19,59.57,1.13,2.01,2.66,3.86,4.28,5.51,1.51,1.53,2.98.94,3.2-1.19.15-1.42.08-2.92-.21-4.32-1.73-8.29-3.44-16.58-5.37-24.83-3.92-16.71-8-33.38-11.96-50.07-.49-2.05-.9-4.16-.96-6.26-.11-4.27,1.98-6.64,6.22-7.26,2.09-.31,4.21-.5,6.32-.51,10.25-.05,20.51-.05,30.76,0,2.11.01,4.22.25,6.31.55,3.63.53,6.1,2.64,7.38,6.03.78,2.08,1.45,4.22,1.97,6.38,6.74,27.95,13.45,55.91,20.16,83.87,4.87,20.26,9.7,40.54,14.63,60.79.92,3.78,2.15,7.5,3.4,11.19.88,2.61,1.28,2.92,3.46,4.34ZM702.26,146.89c-.64-8.23-1.31-18.9-2.33-29.53-.81-8.48-3.01-16.65-6.57-24.42-2.54-5.55-6.39-9.85-11.92-12.61-6.26-3.12-12.89-4.14-19.8-3.74-4.82.28-7.8,3.15-8.27,7.99-.16,1.66-.16,3.34-.16,5.01,0,39.78,0,79.56,0,119.34,0,1.67,0,3.35.21,5,.6,4.62,3.18,7.36,7.82,7.75,14.71,1.24,27.47-3.88,33.12-19.02,1.55-4.16,2.77-8.47,3.75-12.81,3.02-13.32,3.44-26.92,4.13-42.96ZM1166.92,99.5c0-27.42,0-54.83,0-82.25,0-2.23-.04-4.47.2-6.68.47-4.33,2.64-6.66,6.89-7.44,1.96-.36,3.98-.55,5.98-.55,36.89-.03,73.78-.18,110.67.05,17.37.11,33.78,4.49,48.58,13.85,9.44,5.97,17.13,13.8,23.25,23.19,10.11,15.53,15.47,32.75,18.48,50.84.88,5.28,1.74,10.55,2.66,15.82.31,1.76.66,3.89,2.76,4.12,2.41.26,3.03-2.06,3.55-3.79,1.52-5.01,2.94-10.05,4.17-15.14,6.08-25.13,12.08-50.28,18.15-75.41.57-2.37,1.25-4.76,2.23-6.99,1.52-3.46,4.06-5.83,8.08-6.12,2.11-.15,4.22-.44,6.33-.44,35.66-.03,71.33-.03,106.99,0,2.33,0,4.69.2,6.97.63,3.54.66,5.39,2.95,5.41,6.56,0,1.99-.14,4.03-.59,5.96-4.69,19.85-9.45,39.68-14.21,59.51-.31,1.3-.69,2.59-1.2,3.82-1.76,4.15-4.86,6.59-9.42,6.91-2.22.16-4.45.16-6.68.16-13.71.01-27.42-.01-41.13.03-2.22,0-4.45.21-6.66.44-4.46.45-7.48,2.95-8.78,7.13-.75,2.39-1,5-1.07,7.53-.08,2.75,1.54,4.7,4.15,5.41,2.01.55,4.16.82,6.25.83,13.15.08,26.3.02,39.45.08,2.1,0,4.25.14,6.3.57,4.03.84,6.06,3.52,6,7.65-.02,1.32-.2,2.67-.51,3.96-4.71,19.84-9.45,39.68-14.19,59.51-.31,1.3-.76,2.56-1.15,3.84-1.58,5.12-5.19,7.59-10.41,7.89-2.22.13-4.46.13-6.68.13-12.71.01-25.41-.02-38.12.03-2.33,0-4.68.19-6.99.49-4,.52-6.82,2.67-8,6.6-.6,2.01-1.21,4.09-1.31,6.17-.16,3.47,1.54,5.78,4.88,6.69,2.01.55,4.17.72,6.26.73,14.6.06,29.2.02,43.8.07,2.1,0,4.25.14,6.3.56,4.06.83,6.1,3.48,6.04,7.61-.02,1.43-.24,2.89-.57,4.29-4.76,20.06-9.54,40.11-14.38,60.15-.47,1.93-1.17,3.85-2.06,5.62-1.71,3.42-4.56,5.43-8.42,5.78-1.88.17-3.78.19-5.68.19-36.33.01-72.67.01-109,0-2,0-4.02.01-6.01-.2-4.51-.49-6.74-2.95-7.01-7.44-.1-1.66-.14-3.36-.51-4.97-.68-2.94-2.72-4.03-5.54-2.98-1.55.58-3.01,1.44-4.45,2.28-12.63,7.38-26.24,11.66-40.84,12.58-6.78.43-13.57.71-20.36.71-50.26.06-100.53.03-150.79.03-2.79,0-5.57-.01-8.36-.13-4.91-.2-8.15-2.74-9.67-7.36-.66-2-1.05-4.1-1.5-6.16-1.07-4.9-2.05-9.82-3.18-14.7-1.21-5.25-4.42-8.37-9.94-8.82-1.55-.13-3.11-.27-4.67-.27-10.25-.02-20.51-.04-30.76.01-2.22.01-4.45.23-6.65.56-3.48.51-5.95,2.48-7.17,5.78-.73,1.98-1.27,4.04-1.71,6.1-.98,4.58-1.83,9.18-2.76,13.77-.24,1.2-.5,2.4-.86,3.57-1.4,4.53-4.45,7.08-9.21,7.47-1.11.09-2.23.13-3.34.13-10.59,0-21.18,0-31.76,0-1.11,0-2.23-.03-3.34-.15-5.02-.56-7.91-3.89-7.33-8.91.62-5.31,1.52-10.59,2.47-15.85,7.57-41.89,15.21-83.76,22.79-125.65,7.35-40.57,14.65-81.14,21.99-121.71.75-4.16,1.52-8.34,2.53-12.44,1.19-4.89,4.09-8.1,9.43-8.47,1.89-.13,3.78-.35,5.66-.35,21.4-.02,42.8-.03,64.2,0,2,0,4,.21,5.99.45,4.51.55,7.35,3.15,8.34,7.5,1.21,5.32,2.26,10.68,3.21,16.06,4.62,26,9.19,52.01,13.77,78.02,4.6,26.12,9.14,52.25,13.82,78.35,1.12,6.24,2.63,12.42,4.08,18.6.36,1.55.64,3.83,2.67,3.76,2.36-.09,2.19-2.61,2.31-4.21.43-6,.81-12.01.83-18.02.08-27.86.04-55.73.04-83.59h.03ZM1233.78,149.23c0,19.5,0,39,0,58.51,0,2-.03,4.02.2,6.01.54,4.64,3.08,7.21,7.69,7.92.99.15,2,.2,3,.2,8.58,0,17.17.19,25.74-.12,5.54-.2,11.09-.92,16.58-1.79,8.12-1.29,14.35-5.79,19.24-12.26,3.21-4.25,5.19-9.08,6.58-14.16,2.79-10.15,4.04-20.54,4.59-31.02.33-6.34.6-12.69.5-19.03-.09-5.56-.66-11.11-1.12-16.66-.73-8.91-2.18-17.68-5.22-26.14-4.19-11.65-11.89-19.56-24.19-22.19-4.87-1.04-9.92-1.49-14.91-1.64-8.35-.26-16.71-.11-25.07-.05-2.11.01-4.23.2-6.32.53-3.97.63-6.59,3.35-7.05,7.39-.25,2.21-.23,4.45-.23,6.68-.02,19.28,0,38.56,0,57.84ZM1071.83,176.31c0,.12.01.24.02.36,3.21-.27,6.46-.3,9.6-.89,3.34-.62,5.13-3,5.25-6.41.06-1.76-.08-3.57-.39-5.31-.68-3.83-1.51-7.64-2.31-11.46-2.52-12.09-5.03-24.19-7.58-36.28-.3-1.41-.74-2.8-1.29-4.13-.57-1.38-1.48-2.6-3.17-2.55-1.59.05-2.28,1.38-2.69,2.63-.97,2.95-1.93,5.93-2.59,8.96-1.8,8.27-3.46,16.56-5.12,24.86-1.38,6.88-2.83,13.74-3.96,20.66-.92,5.63,1.88,9.02,7.56,9.51,2.21.19,4.45.03,6.67.03ZM181.28,201.57c2.51-.85,3.29-2.34,3.8-3.93,1.7-5.3,3.5-10.58,4.9-15.97,10.5-40.34,20.9-80.7,31.35-121.05,3.91-15.1,7.87-30.2,11.8-45.3,2.68-10.28,5.76-12.74,16.44-12.75,25.97-.03,51.94-.02,77.91,0,1.67,0,3.33.18,5,.31,5.37.42,8.52,3.49,9.86,8.53,1.61,6.03,3.17,12.07,4.66,18.13,4.36,17.75,8.68,35.51,13.01,53.27,9.49,38.87,18.98,77.74,28.46,116.61,5.65,23.17,11.28,46.35,16.89,69.53,1.18,4.87,2.33,9.76,3.38,14.66.37,1.73.52,3.53.5,5.3-.03,3.36-1.84,5.71-5.06,6.62-1.27.36-2.63.53-3.96.54-19.06.03-38.12.07-57.18-.03-6.12-.03-9.42-2.66-11.45-8.44-.3-.84-.52-1.7-.76-2.56-1.61-5.8-3.09-11.64-4.88-17.38-.61-1.95-1.86-3.75-3.06-5.45-1.2-1.7-3.06-2.6-5.12-2.88-2.2-.29-4.43-.6-6.64-.61-21.18-.05-42.35-.04-63.53,0-2,0-4,.26-6,.42-4.77.39-7.83,3.03-9.32,7.43-1.39,4.12-2.54,8.31-3.76,12.48-.69,2.35-1.27,4.74-1.97,7.09-2.14,7.12-5.69,9.92-13.1,9.96-15.05.09-30.09.05-45.14.05-13.82,0-27.64,0-41.46-.01-2.12,0-4.25.02-6.35-.2-4.96-.54-7.64-3.23-8.15-8.18-.22-2.1-.17-4.23-.17-6.35-.01-25.3.01-50.6-.03-75.9,0-2.78-.2-5.57-.6-8.32-.64-4.41-3.27-6.87-7.69-7.57-.22-.04-.44-.09-.66-.09-8.57,0-17.15-.24-25.7.14-5.17.23-7.72,3.39-8.03,8.55-.13,2.22-.11,4.46-.11,6.69,0,25.3.01,50.6-.04,75.9,0,2.66-.2,5.36-.67,7.97-.73,4.07-3.34,6.45-7.43,7.08-1.32.2-2.66.27-4,.27-14.38.02-28.76.02-43.13-.02-1.66,0-3.35-.15-4.97-.49-3.4-.71-5.43-2.91-6.18-6.27-.24-1.08-.35-2.2-.39-3.31-.07-2.23-.06-4.46-.06-6.69,0-86.49,0-172.99,0-259.48,0-2.79-.04-5.58.12-8.36.3-4.95,2.89-7.74,7.81-8.5,1.86-.28,3.77-.41,5.66-.42,13.15-.04,26.3-.04,39.46,0,2,0,4.01.19,5.98.53,3.99.69,6.61,3.28,7.2,7.29.41,2.74.59,5.54.6,8.32.05,23.74.02,47.48.04,71.22,0,2.12-.04,4.25.22,6.34.55,4.5,3.04,6.98,7.52,7.68,1.1.17,2.22.2,3.33.2,6.58.02,13.15.02,19.73,0,1.11,0,2.24-.05,3.33-.22,5.08-.78,7.47-3.12,8.17-8.24.33-2.42.49-4.88.49-7.32.04-23.41.02-46.81.03-70.22,0-2.34-.04-4.69.14-7.02.36-4.58,2.94-7.39,7.45-8.12,1.97-.32,3.99-.46,5.99-.47,13.15-.04,26.3-.05,39.46,0,2.11,0,4.22.28,6.31.57,3.94.54,6.19,3,6.8,6.78.46,2.85.67,5.76.68,8.64.05,24.74.03,49.49.03,74.23,0,31.32,0,62.64.07,93.96,0,3.55.34,7.12.73,10.65.15,1.34.89,2.62,1.44,4.15ZM278.25,176.37s0-.05,0-.07c4.12,0,8.27.26,12.36-.06,5.81-.46,8.24-3.89,7.26-9.6-.15-.88-.36-1.75-.59-2.61-1.02-3.88-2.04-7.76-3.08-11.64-3.53-13.25-7.04-26.5-10.63-39.73-.46-1.7-1.14-3.4-2.02-4.92-1.63-2.8-3.97-2.9-5.71-.14-1.1,1.76-1.85,3.81-2.4,5.83-4.22,15.6-8.4,31.21-12.49,46.84-.78,3-1.24,6.1-1.59,9.18-.32,2.78,1.36,4.7,3.67,5.85,1.35.67,2.99.95,4.51,1.02,3.56.14,7.13.05,10.7.05Z"/></svg>