<?xml version="1.0" encoding="UTF-8"?><svg id="Layer_1" xmlns="http://www.w3.org/2000/svg" viewBox="0 0 809.5 715.42"><defs><style>.cls-1{fill:#000;stroke-width:0px;}</style></defs><path class="cls-1" d="M115.78,695.76l10.16,16.38h-16.69l-8.9-14.72h-22.83v14.72h-14.17v-55.11h43.3c12.52,0,21.1,7.95,21.1,20.23,0,8.98-4.57,15.59-11.97,18.5ZM77.52,685.52h25.19c4.25,0,10.86,0,10.86-8.27s-6.61-8.34-10.86-8.34h-25.19v16.61ZM171.75,668.28v11.18h44.09v10.23h-44.09v11.18h44.09v11.26h-58.26v-55.11h58.26v11.26h-44.09ZM298.26,692.81c-2.72,5.82-9.11,8.22-18.74,8.22-14.33,0-20.47-5.2-20.47-16.53s6.06-16.37,20.47-16.37c9.76,0,16.12,2.38,18.79,8.22h14.95c-2.89-13.19-13.79-20.11-33.75-20.11-24.25,0-34.64,10-34.64,28.26s10.39,28.42,34.64,28.42c19.89,0,30.78-6.93,33.72-20.11h-14.98ZM343.45,684.5c0-18.26,10.39-28.26,34.64-28.26s34.64,10.08,34.64,28.26-10.47,28.42-34.64,28.42-34.64-10.08-34.64-28.42ZM398.56,684.5c0-11.18-5.67-16.37-20.47-16.37s-20.47,5.12-20.47,16.37,5.75,16.53,20.47,16.53,20.47-5.27,20.47-16.53ZM495.47,695.76l10.16,16.38h-16.69l-8.9-14.72h-22.83v14.72h-14.17v-55.11h43.3c12.52,0,21.1,7.95,21.1,20.23,0,8.98-4.57,15.59-11.97,18.5ZM457.21,685.52h25.19c4.25,0,10.86,0,10.86-8.27s-6.61-8.34-10.86-8.34h-25.19v16.61ZM604.03,684.58c0,18.74-12.52,27.55-26.77,27.55h-39.99v-55.11h39.99c14.25,0,26.77,8.82,26.77,27.55ZM589.86,684.58c0-13.38-7.24-15.67-17.95-15.67h-20.47v31.33h20.47c10.71,0,17.95-2.28,17.95-15.66ZM646.77,693.16c0,5.83,4.72,8.5,22.67,8.5,14.88,0,19.37-1.65,19.37-5.98,0-4.57-3.15-5.35-21.02-6.22-24.01-1.1-33.54-4.88-33.54-17.24s12.36-15.98,32.99-15.98,33.38,5.2,33.38,18.81h-14.17c0-6.06-6.06-7.56-20.78-7.56-13.93,0-17.24,1.34-17.24,5.43s3.31,5.04,19.37,5.98c21.73,1.18,35.19,2.36,35.19,16.3,0,14.72-13.93,17.71-34.32,17.71-22.59,0-36.06-3.86-36.06-19.76h14.17ZM422.98,403.58c0-26.84,0-53.68.01-80.52,0-2.13-.03-4.29.28-6.38.61-4.2,2.75-6.34,6.95-7.07,1.87-.32,3.79-.49,5.69-.49,36.16-.02,72.32-.18,108.48.1,15.74.12,31.04,2.98,45.22,10.37,12.96,6.75,23.17,16.42,31.02,28.71,8.72,13.67,13.59,28.77,16.64,44.54,1.26,6.5,2.22,13.06,3.42,19.57.3,1.63.84,3.28,1.62,4.74.92,1.73,2.14,1.81,3.48.33.81-.89,1.53-1.98,1.91-3.11,1.12-3.29,2.2-6.61,3.02-9.99,6.58-27.06,13.1-54.13,19.66-81.2.55-2.29,1.16-4.58,1.94-6.8,1.32-3.78,3.86-6.28,7.99-6.8,1.89-.24,3.8-.46,5.69-.46,36.39-.02,72.77-.01,109.16.04,2.11,0,4.27.23,6.34.69,3.96.87,5.77,3.12,5.5,7.23-.2,2.89-.9,5.76-1.57,8.59-3.94,16.6-7.94,33.2-11.94,49.79-.76,3.17-1.58,6.32-2.48,9.45-1.28,4.46-4.3,7-8.89,7.57-1.77.22-3.59.19-5.38.19-14.37.02-28.75-.02-43.12.04-2.8.01-5.6.31-8.39.59-3.58.37-5.97,2.48-7.37,5.65-1.33,3.01-1.87,6.2-1.8,9.52.06,2.88,1.47,4.77,4.06,5.53,2.01.59,4.18.85,6.29.86,13.7.08,27.4.03,41.1.1,2.11.01,4.27.23,6.33.7,3.47.81,5.17,2.98,5.05,6.55-.09,2.56-.44,5.15-1.03,7.65-4.48,18.9-9.05,37.78-13.59,56.66-.21.87-.43,1.75-.68,2.61-2.01,6.93-4.86,9.24-12.1,9.29-13.92.1-27.85.02-41.78.08-2.8.01-5.6.21-8.4.43-3.11.25-6.08,1-7.79,3.93-2.14,3.66-3.5,7.63-2.63,11.9.6,2.93,2.87,4.52,5.75,4.97,1.87.29,3.8.29,5.71.3,14.82.03,29.65,0,44.47.05,2.12,0,4.27.18,6.35.56,3.58.66,5.57,2.96,5.49,6.54-.06,2.56-.4,5.16-.99,7.65-4.53,19.12-9.21,38.2-13.72,57.32-2.21,9.38-5.67,12.23-15.46,12.18-37.06-.18-74.12-.07-111.18-.08-1.91,0-3.83.02-5.72-.23-4.04-.53-6.19-2.85-6.5-6.93-.14-1.79-.02-3.6-.15-5.39-.21-2.85-1.66-4.13-4.44-3.58-1.72.34-3.45,1.06-4.95,1.98-13.18,8.1-27.54,12.5-42.88,13.87-2.34.21-4.71.25-7.07.25-56.71.02-113.42.02-170.14.01-1.57,0-3.16-.02-4.7-.25-3.89-.58-6.7-2.7-7.79-6.52-1.05-3.66-1.76-7.42-2.62-11.13-.97-4.15-1.85-8.33-2.96-12.44-1.1-4.1-3.82-6.51-8.16-6.86-2.12-.17-4.25-.47-6.37-.48-10.11-.05-20.21-.05-30.32,0-2.24.01-4.48.28-6.71.47-4.62.39-7.43,3.12-8.57,7.36-1.23,4.54-2,9.21-2.99,13.82-.64,2.96-1.2,5.95-2,8.86-1.13,4.1-3.89,6.45-8.16,6.94-.89.1-1.79.21-2.68.21-11.68,0-23.36,0-35.04-.01-.78,0-1.58-.04-2.35-.15-3.78-.56-6.47-3.29-6.26-7.08.23-4.24.86-8.48,1.61-12.66,8.11-44.86,16.29-89.7,24.42-134.55,6.75-37.23,13.47-74.47,20.21-111.7,1.12-6.19,2.26-12.37,3.44-18.55.27-1.43.59-2.89,1.18-4.2,1.3-2.91,3.42-5.04,6.69-5.57,2.1-.34,4.23-.6,6.35-.6,22.12-.05,44.25-.05,66.37-.03,1.68,0,3.36.19,5.03.39,4.56.55,7.33,3.26,8.42,7.57.94,3.69,1.61,7.46,2.27,11.22,6,33.94,11.96,67.89,17.94,101.84,3.08,17.47,6.08,34.96,9.27,52.41,1.43,7.84,3.21,15.61,4.92,23.4.36,1.63.97,3.24,1.72,4.72.34.67,1.37,1.46,1.98,1.38.64-.08,1.52-1.07,1.67-1.79.49-2.41.87-4.87.99-7.33.32-6.28.65-12.56.66-18.84.07-26.84.03-53.68.03-80.52h.03ZM489.65,456.73h.02c0,20.66-.04,41.32.02,61.98.03,8.57,2.83,11.33,11.35,11.39,9.54.07,19.09.08,28.63-.02,3.47-.04,6.96-.29,10.39-.78,8.7-1.22,16.49-4.37,22.17-11.48,4.13-5.18,6.67-11.13,8.41-17.48,3.47-12.67,4.04-25.69,4.58-38.7.44-10.45-.32-20.87-1.36-31.26-.85-8.5-2.39-16.87-5.71-24.85-4.94-11.91-13.67-18.98-26.35-20.95-4.97-.78-10.04-1.14-15.07-1.29-7.07-.22-14.15-.11-21.22-.04-2.69.03-5.38.22-8.05.52-4.54.52-7.11,3.08-7.6,7.61-.24,2.22-.21,4.48-.21,6.73-.01,19.54,0,39.07,0,58.61ZM327.41,484.17c0,.12,0,.23.01.35,3.24-.22,6.51-.21,9.7-.73,3.63-.59,5.56-3.23,5.58-6.91,0-.89-.11-1.79-.28-2.67-3.29-16.26-6.57-32.52-9.92-48.76-.45-2.19-1.19-4.33-1.95-6.43-.51-1.41-1.49-2.62-3.14-2.67-1.74-.05-2.57,1.3-3.07,2.69-.8,2.21-1.6,4.44-2.09,6.74-2.86,13.37-5.66,26.76-8.41,40.15-.65,3.18-1.22,6.39-1.53,9.62-.52,5.32,1.75,8.08,7.04,8.58,2.67.25,5.37.04,8.06.04ZM619.19,176.66c.66-1.08,1.49-2,1.8-3.06.46-1.6.69-3.31.76-4.98.28-6.5.64-13.01.65-19.52.06-43.01.03-86.03.04-129.04,0-3.03-.06-6.07.17-9.09.38-4.79,2.54-7.11,7.21-7.91,1.98-.34,4.01-.53,6.02-.53,28.75-.03,57.5-.15,86.25.06,11.87.09,23.45,2.15,34.36,7.21,12.86,5.96,22.53,15.4,29.87,27.33,8.54,13.89,13.1,29.24,16.02,45.14,2.95,16.06,4.13,32.27,4.04,48.59-.08,14.82.12,29.65-.05,44.47-.22,18.92-2.3,37.64-7.25,55.96-3.87,14.33-9.42,27.9-18.71,39.64-11.51,14.54-26.44,23.41-44.9,26-3.32.47-6.7.71-10.06.72-46.94.04-93.89.01-140.83,0-.56,0-1.12-.03-1.68-.02-5.82.15-10.16-2.35-13.11-7.32-2.58-4.35-5.14-8.7-7.65-13.08-14.22-24.85-28.38-49.73-42.64-74.56-6.99-12.17-14.11-24.26-21.28-36.32-1.13-1.89-2.74-3.56-4.36-5.08-1.52-1.43-3.16-.84-3.34,1.22-.19,2.1-.14,4.29.25,6.36,1.07,5.74,2.24,11.46,3.6,17.14,7.22,30.26,14.51,60.5,21.77,90.74.76,3.17,1.55,6.33,2.2,9.52,1.64,8.03-.88,11.33-8.99,11.39-13.36.1-26.73-.06-40.09.06-5.41.05-9.99-2.54-11.53-8.76-1.75-7.08-3.55-14.16-5.26-21.25-3.61-14.95-7.17-29.92-10.75-44.88-4.78-19.98-9.55-39.97-14.35-59.95-5.12-21.29-10.28-42.57-15.4-63.85-6.67-27.73-13.33-55.47-19.94-83.21-.46-1.95-.68-3.99-.7-5.99-.04-3.68,1.78-5.88,5.4-6.62,1.86-.38,3.78-.63,5.68-.63,22.01-.04,44.02.02,66.04-.05,6.98-.02,12,2.88,15.33,9.01,7.68,14.1,15.37,28.19,23.2,42.21,7.61,13.62,15.38,27.15,23.16,40.67.87,1.52,2.16,2.89,3.53,4.01,1.67,1.37,3.17.7,3.12-1.47-.07-3.24-.3-6.53-.99-9.68-2.54-11.63-5.25-23.22-7.97-34.8-2.83-12.02-5.78-24.02-8.62-36.04-.51-2.17-.94-4.41-1.02-6.64-.13-3.46,1.74-5.79,5.11-6.52,1.96-.42,4-.68,6-.69,10.89-.07,21.79-.06,32.68-.01,1.78,0,3.58.24,5.35.53,4.15.69,7.02,3.06,8.12,7.12,1.77,6.5,3.36,13.04,4.95,19.59,3.61,14.95,7.17,29.92,10.76,44.88,6.21,25.88,12.36,51.77,18.67,77.63,1.62,6.65,3.76,13.17,5.69,19.73.54,1.84,1.31,3.56,3.65,4.64ZM689.12,150.24c0,19.64,0,39.28,0,58.92,0,2.02-.03,4.05.12,6.06.44,5.71,3.31,8.71,9.01,8.79,3.78.05,7.62-.33,11.36-.95,9.53-1.58,16.31-6.96,20.64-15.57,2.7-5.37,4.31-11.06,5.47-16.92,2.41-12.16,2.81-24.51,3.22-36.83.41-12.12-.58-24.21-1.96-36.26-.86-7.49-2.29-14.87-5.36-21.82-2.74-6.2-6.6-11.47-12.66-14.82-6.95-3.85-14.46-4.57-22.19-3.66-4.33.51-6.9,3.07-7.41,7.42-.26,2.22-.23,4.48-.23,6.72-.02,19.64,0,39.28-.01,58.92ZM34.14,150.32c0-43.35,0-86.7,0-130.05,0-3.03-.06-6.07.15-9.09.35-4.96,2.52-7.32,7.36-8.14,1.98-.33,4.02-.5,6.03-.51,13.25-.04,26.5-.06,39.76,0,2.23.01,4.48.3,6.67.72,3.47.66,5.53,2.92,6.05,6.38.38,2.54.63,5.13.63,7.7.05,23.58.03,47.17.03,70.75,0,2.25-.02,4.49.06,6.74.26,6.89,3.15,9.84,9.98,10.02,4.94.13,9.88.06,14.82.07,3.03,0,6.07.04,9.1-.06,5.89-.2,8.66-2.66,9.43-8.41.28-2.11.41-4.25.42-6.37.03-24.82.02-49.64.05-74.46,0-2.01.04-4.06.37-6.04.59-3.58,2.71-5.87,6.39-6.42,1.99-.3,4.01-.61,6.02-.62,13.7-.05,27.4-.07,41.1.01,2.22.01,4.47.38,6.65.88,2.88.66,4.78,2.6,5.28,5.5.49,2.86.8,5.79.81,8.69.05,39.53.03,79.06.04,118.6,0,17.41.02,34.82.12,52.22.02,3.36.38,6.72.76,10.06.2,1.72.3,4.02,2.53,4.22,1.94.18,2.75-1.85,3.28-3.38,1.75-5.09,3.55-10.19,4.91-15.39,7.34-28.02,14.55-56.08,21.83-84.12,7.3-28.15,14.61-56.3,21.93-84.45.28-1.09.59-2.17.94-3.23,2.23-6.9,4.87-8.99,12.14-9.56,1.12-.09,2.24-.08,3.37-.08,26.06,0,52.11-.02,78.17.02,2.12,0,4.25.25,6.35.56,3.8.57,6.21,2.95,7.62,6.39.55,1.34.97,2.76,1.31,4.17,8.79,35.89,17.55,71.78,26.33,107.66,4.08,16.69,8.19,33.37,12.27,50.06,9.14,37.42,18.27,74.84,27.38,112.26.48,1.96.85,3.96,1.05,5.97.4,4.05-1.83,7-5.84,7.73-1.53.28-3.13.32-4.69.32-18.19.02-36.39,0-54.58,0-.9,0-1.8-.02-2.69-.07-4.9-.28-8.31-2.59-9.7-7.4-1.56-5.39-2.87-10.86-4.52-16.22-1.01-3.29-2.26-6.56-3.8-9.64-1.22-2.44-3.61-3.62-6.37-3.84-2.46-.2-4.92-.53-7.38-.54-21-.04-42-.04-63,0-2.46,0-4.93.29-7.38.53-3.68.36-6.44,2.23-7.73,5.65-1.5,3.98-2.65,8.1-3.87,12.18-1.03,3.44-1.93,6.92-2.94,10.37-1.83,6.21-5.22,8.91-11.8,8.95-17.29.09-34.59.06-51.89.07-12.24,0-24.48,0-36.72-.03-2.02,0-4.05.03-6.06-.17-4.46-.45-7.44-3.4-7.82-7.84-.23-2.68-.18-5.39-.18-8.08-.01-25.27.01-50.54-.04-75.81,0-2.68-.24-5.39-.65-8.04-.61-3.89-2.73-5.87-6.64-6.58-1.21-.22-2.45-.49-3.67-.48-8.19.07-16.39,0-24.56.4-5.3.26-7.8,3.15-8.15,8.49-.16,2.46-.13,4.94-.13,7.41,0,25.49,0,50.99-.04,76.48,0,2.46-.23,4.94-.62,7.36-.61,3.76-2.99,5.94-6.72,6.55-1.43.23-2.91.3-4.36.3-14.49,0-28.98,0-43.46-.03-1.35,0-2.7-.02-4.03-.21-4.09-.57-6.75-3.17-7.21-7.28-.28-2.56-.24-5.16-.24-7.74-.01-44.02,0-88.05,0-132.07ZM311.97,177.68h0c3.7,0,7.4.06,11.1-.04,1.55-.04,3.15-.25,4.62-.7,2.94-.89,4.33-2.62,4.32-5.67-.01-2.21-.3-4.48-.85-6.63-3.78-14.66-7.62-29.3-11.53-43.92-1.01-3.79-2.2-7.54-3.56-11.21-.63-1.71-1.48-3.86-3.79-3.76-2.11.1-3.24,1.94-4.01,3.69-.89,2.05-1.6,4.2-2.18,6.36-4.31,16.02-8.59,32.06-12.83,48.1-.48,1.83-.83,3.74-.95,5.62-.31,5.05,1.79,7.44,6.88,8.03.89.1,1.79.12,2.69.12,3.36.01,6.73,0,10.09,0ZM83.87,478.05c.38,3.79.63,7.6.69,11.41.05,3.36-.29,6.72-.36,10.08-.13,5.84-.08,11.68-.3,17.51-.56,14.58-1.23,29.15-1.88,43.72-.37,8.29-.8,16.59-1.14,24.88-.14,3.36-.15,6.74-.11,10.1.03,2.45.89,4.56,2.78,6.27,2,1.8,4.38,2.17,6.89,2.18,10.22.03,20.44.05,30.66.05,1.68,0,3.37,0,5.05-.15,4.56-.38,7.75-2.71,9.5-6.96.3-.73.58-1.46.83-2.21,3.92-11.95,7.83-23.9,11.74-35.85,3.38-10.35,6.66-20.74,10.16-31.05,5.2-15.31,10.53-30.57,15.88-45.82.74-2.1,1.85-4.09,2.96-6.03.3-.52,1.27-.92,1.9-.88.41.02.96.87,1.13,1.44.22.73.2,1.56.13,2.34-.25,2.68-.43,5.38-.87,8.03-2.34,14.18-4.64,28.36-7.17,42.5-3.72,20.77-7.65,41.51-11.45,62.27-.32,1.75-.56,3.57-.48,5.34.15,3.39,1.78,5.44,5.05,6.34,1.71.47,3.54.64,5.32.65,13.25.05,26.5.04,39.75.02,1.34,0,2.7-.05,4.03-.26,3.93-.62,6.5-2.91,7.64-6.7.58-1.93,1.02-3.91,1.39-5.9,6.51-34.99,13.02-69.98,19.5-104.98,6.97-37.64,13.92-75.3,20.89-112.94,3.19-17.22,6.42-34.44,9.57-51.67.34-1.86.5-3.8.4-5.68-.19-3.47-1.78-5.41-5.15-6.17-2.28-.51-4.66-.79-6.99-.8-22.57-.06-45.14-.05-67.71-.05-1.35,0-2.69.06-4.04.18-4.96.42-8.39,2.97-10.13,7.63-.94,2.52-1.73,5.1-2.54,7.67-6.05,19.4-11.98,38.84-18.16,58.2-2.15,6.72-4.87,13.27-7.37,19.88-.31.82-.74,1.67-1.34,2.29-1.4,1.45-3.04,1.01-3.5-.95-.28-1.18-.34-2.46-.26-3.68.6-9.63,1.12-19.26,1.94-28.87,1.18-13.75,2.62-27.48,3.89-41.22.4-4.35.76-8.73.8-13.09.04-3.97-2.18-6.53-6.06-7.39-1.85-.41-3.78-.6-5.67-.6-24.7-.04-49.41-.05-74.11-.02-2.01,0-4.09.12-6,.66-1.65.47-3.27,1.42-4.61,2.51-2.63,2.13-3.08,5.4-3.68,8.47-1.88,9.58-3.67,19.19-5.44,28.79-3.07,16.67-6.08,33.35-9.17,50.02-4.77,25.72-9.61,51.42-14.39,77.14-4.51,24.28-8.96,48.58-13.45,72.86-2.63,14.24-5.34,28.47-7.91,42.72-1.53,8.5,1.25,11.87,9.79,11.93,10.44.08,20.89.07,31.33,0,8.1-.05,11.1-2.57,12.77-10.45.12-.55.19-1.11.3-1.66,1.07-5.85,2.13-11.71,3.23-17.56,4.15-22.18,8.23-44.38,12.51-66.53,1.76-9.15,3.92-18.22,5.94-27.31.46-2.07,1.15-4.08,3.44-6.17.73,1.46,1.59,2.44,1.69,3.5Z"/></svg>